<svg viewBox="0 0 91 91" xml:space="preserve" xmlns="http://www.w3.org/2000/svg" enable-background="new 0 0 91 91"><path d="M78.4 64.1c2.8-11.8-1.2-23.6-10.1-31.8-7.2-6.6-15.4-9.4-24.2-10.5 7.9-3.6 15.1-8.9 18-15.8.8-1.9-.6-5-3.1-4-11.1 4.3-21 12.7-33.4 14.1-5.6.6-7.4 7-2.8 10.3 9.2 6.7 13 15.2 18.9 24.3 3.4 5.2 10.6 1.7 9.7-4.1-1.1-6.9-5.2-13.3-10.3-18.9C56.3 31 71.9 40.6 70.8 57.2 69.5 77.1 38.1 78 28.4 64.3c-7.7-10.8-23.4 1.6-14.2 11C31.4 93.2 71.9 92 78.4 64.1z" fill="#7da177" class="fill-3b6a75"></path></svg>