<svg version="1.1" id="Layer_1" xmlns="http://www.w3.org/2000/svg" xmlns:xlink="http://www.w3.org/1999/xlink" x="0px" y="0px"
	 width="100%" viewBox="0 0 500 500" enable-background="new 0 0 500 500" xml:space="preserve">
<path fill="#000000" opacity="1.000000" stroke="none" 
	d="
M280.000000,501.000000 
	C186.666687,501.000000 93.833374,501.000000 1.000050,501.000000 
	C1.000033,334.333405 1.000033,167.666794 1.000017,1.000139 
	C167.666565,1.000093 334.333130,1.000093 500.999756,1.000046 
	C500.999847,167.666519 500.999847,334.333038 500.999939,500.999786 
	C427.500000,501.000000 354.000000,501.000000 280.000000,501.000000 
M352.973267,110.461678 
	C352.691193,110.295776 352.409119,110.129875 351.759918,109.253563 
	C348.858765,108.805183 345.957642,108.356804 343.004700,107.979286 
	C343.004700,107.979286 343.084290,107.942299 342.923553,107.411690 
	C342.576050,107.591652 342.228546,107.771614 341.075714,107.978340 
	C334.783051,106.984947 328.513000,105.351761 322.193146,105.128601 
	C308.141052,104.632401 294.063965,104.772095 279.997131,104.780800 
	C259.842194,104.793266 239.687241,104.994278 219.532425,104.975105 
	C203.002075,104.959381 186.520477,105.466820 170.302856,109.020782 
	C144.521927,114.670456 123.559639,128.290787 107.266289,148.767456 
	C101.332321,156.224976 97.045258,164.992935 91.373947,172.870300 
	C91.087067,172.322678 90.800186,171.775055 90.617439,171.426224 
	C88.309555,174.884415 85.985931,178.332840 83.696159,181.803604 
	C77.271812,191.541397 72.130432,202.564209 72.569710,213.770203 
	C72.995888,224.641891 78.129158,235.329071 81.523590,247.250443 
	C83.064156,244.663605 83.698883,243.597809 84.720512,241.882324 
	C84.906548,244.110748 85.025536,245.536133 85.004616,247.801865 
	C84.197426,252.182343 83.390236,256.562805 82.564026,261.046509 
	C77.709625,258.931610 73.123367,256.933502 68.977417,255.127243 
	C69.697441,258.823395 70.903778,262.238037 70.935631,265.663666 
	C71.068680,279.970642 76.643234,291.493042 88.760162,299.012756 
	C98.561958,305.095703 108.232491,312.330078 121.755440,310.995483 
	C123.137718,311.005676 124.519989,311.015839 126.225037,311.731750 
	C129.504227,312.715271 132.783417,313.698761 136.679413,315.085907 
	C151.971313,323.073975 168.664246,326.811890 185.201370,330.978241 
	C202.988922,335.459595 220.763138,339.804565 237.500885,347.712830 
	C247.322113,352.353180 257.482269,356.628143 268.635162,356.969788 
	C282.918488,357.407318 295.793610,352.460052 307.423218,344.872589 
	C332.489136,328.518921 354.994873,309.003326 376.003052,287.691498 
	C389.740753,273.755219 401.706024,258.592285 409.659271,240.645493 
	C416.346802,225.554794 421.121399,209.778427 418.811981,193.064880 
	C417.544678,183.893188 414.403168,174.980484 412.025818,165.188553 
	C411.006958,160.624832 409.837341,156.088455 409.003021,151.491241 
	C407.604584,143.785568 405.362610,136.618866 400.057587,130.460510 
	C393.817535,123.216660 385.575012,119.219406 377.458557,114.818817 
	C371.950592,111.832497 366.277100,110.418335 359.307190,111.023651 
	C357.214203,111.000099 355.121185,110.976547 352.996796,110.996002 
	C352.996796,110.996002 353.043579,110.971062 352.973267,110.461678 
M62.410984,314.118683 
	C75.828880,321.842346 88.560928,314.957245 101.871727,312.649780 
	C94.510719,308.239227 87.525558,304.202972 80.689995,299.927582 
	C65.780022,290.601959 49.634972,288.673737 33.270058,291.461090 
	C40.040470,301.968048 50.929535,307.870941 62.410984,314.118683 
M384.180267,107.660034 
	C381.946808,108.173744 379.713348,108.687462 376.695587,109.381569 
	C382.857239,112.315315 388.897308,114.036964 393.466125,117.629601 
	C400.825500,123.416557 408.896088,127.066811 417.765900,129.315262 
	C421.994110,130.387085 426.315491,131.812210 430.589996,131.796661 
	C435.861481,131.777512 441.128113,130.424637 446.693817,129.604355 
	C446.015503,129.155655 445.354095,128.941345 445.055817,128.488098 
	C438.291321,118.207893 427.635162,112.858231 417.339905,107.339996 
	C413.193665,105.117645 407.873749,104.128822 403.123077,104.229843 
	C397.032715,104.359360 390.977753,106.154060 384.180267,107.660034 
M436.999847,199.502716 
	C437.829926,200.565079 438.660004,201.627441 439.240112,202.369888 
	C443.520935,192.469543 442.699768,182.266327 441.696869,171.964752 
	C440.257904,157.184494 426.999359,141.343781 413.200439,138.554840 
	C417.337128,145.510406 418.869537,152.954193 419.166016,161.015656 
	C419.483856,169.659485 421.330994,178.152252 426.825073,185.381744 
	C430.188385,189.807434 433.281311,194.438629 436.999847,199.502716 
M62.402832,272.892670 
	C61.935326,270.169678 60.983986,267.429840 61.078213,264.726440 
	C61.727650,246.094101 51.813641,232.431122 39.594746,219.451004 
	C38.623894,227.838913 38.099316,236.193497 38.082329,244.549103 
	C38.072666,249.299561 37.912849,254.418381 39.526634,258.733276 
	C44.080441,270.909058 54.056370,277.757538 66.083527,283.380615 
	C64.848862,279.577850 63.873016,276.572266 62.402832,272.892670 
z"/>
<path fill="#F2EDD5" opacity="1.000000" stroke="none" 
	d="
M412.106750,165.950989 
	C414.403168,174.980484 417.544678,183.893188 418.811981,193.064880 
	C421.121399,209.778427 416.346802,225.554794 409.659271,240.645493 
	C401.706024,258.592285 389.740753,273.755219 376.003052,287.691498 
	C354.994873,309.003326 332.489136,328.518921 307.423218,344.872589 
	C295.793610,352.460052 282.918488,357.407318 268.635162,356.969788 
	C257.482269,356.628143 247.322113,352.353180 237.500885,347.712830 
	C220.763138,339.804565 202.988922,335.459595 185.201370,330.978241 
	C168.664246,326.811890 151.971313,323.073975 136.585358,314.678040 
	C136.620972,312.909302 137.080994,311.483032 136.826660,310.198151 
	C135.193253,301.946625 133.412064,293.724274 131.662186,285.495972 
	C130.054504,277.936188 128.923843,270.229675 126.687721,262.859436 
	C123.391396,251.994766 114.197021,245.534973 106.292175,238.353882 
	C102.478050,234.888962 97.481033,232.726166 93.060516,229.619690 
	C93.411957,228.503616 93.623192,227.680710 94.047638,226.988541 
	C103.121300,212.191391 103.202126,197.155167 95.447975,181.814331 
	C94.053558,179.055588 93.141556,176.053024 92.006821,173.163025 
	C97.045258,164.992935 101.332321,156.224976 107.266289,148.767456 
	C123.559639,128.290787 144.521927,114.670456 170.302856,109.020782 
	C186.520477,105.466820 203.002075,104.959381 219.532425,104.975105 
	C239.687241,104.994278 259.842194,104.793266 279.997131,104.780800 
	C294.063965,104.772095 308.141052,104.632401 322.193146,105.128601 
	C328.513000,105.351761 334.783051,106.984947 341.779358,107.980492 
	C342.683441,107.969193 342.883881,107.955750 343.084290,107.942299 
	C343.084290,107.942299 343.004700,107.979286 343.016541,108.362122 
	C345.077026,120.812042 346.519012,133.025330 349.379791,144.896713 
	C351.411224,153.326782 352.665314,162.517441 358.946594,169.234665 
	C367.221466,178.083862 375.541809,187.026138 386.959167,192.356598 
	C374.313751,212.445480 377.856018,231.401459 389.696320,249.668076 
	C391.809601,246.610764 394.073517,243.361237 396.311066,240.093658 
	C402.840912,230.557861 406.957153,219.707550 407.598236,208.529221 
	C408.244843,197.255493 402.307495,186.962189 397.911499,176.078430 
	C396.341827,178.460464 395.173218,180.233856 394.001831,181.568253 
	C395.071075,174.535126 396.143127,167.940964 397.202698,161.423538 
	C402.702698,163.094299 407.404724,164.522644 412.106750,165.950989 
M331.505859,274.910461 
	C329.987793,276.050415 329.887207,276.075623 329.070770,272.819183 
	C324.341034,253.954620 319.726868,235.060593 314.868439,216.229462 
	C314.377380,214.326126 312.516602,212.776184 311.291473,211.062256 
	C310.558533,213.013504 309.190887,214.964355 309.189636,216.916092 
	C309.175049,239.566360 309.359406,262.216827 309.527557,284.866943 
	C309.535248,285.902863 309.888855,286.936218 310.081329,287.970764 
	C310.666107,288.042511 311.250885,288.114258 311.835693,288.186005 
	C312.149078,286.436462 312.729523,284.687775 312.735046,282.937256 
	C312.798950,262.688629 312.775848,242.439743 312.775848,222.245712 
	C312.914215,222.654892 313.147766,223.229416 313.303955,223.824219 
	C318.496124,243.596283 323.634460,263.382782 328.947662,283.122223 
	C329.413788,284.854004 331.019318,286.279083 332.095581,287.846619 
	C332.764954,286.150391 333.988647,284.464325 334.019958,282.756439 
	C334.444000,259.615814 334.713898,236.472244 334.975281,213.328888 
	C334.992035,211.845871 334.626038,210.358521 334.370178,208.336502 
	C333.197998,209.168030 332.486359,209.433334 332.481812,209.710205 
	C332.130280,231.161346 331.834259,252.613403 331.505859,274.910461 
M213.395493,273.844482 
	C214.099777,272.157806 214.868729,270.494904 215.498199,268.780762 
	C220.897766,254.077316 221.402298,239.145706 216.962387,224.176056 
	C214.050949,214.359833 208.346680,210.374023 199.628479,210.982712 
	C195.538864,211.268219 193.850571,212.689240 195.402985,217.025925 
	C196.162506,219.147690 196.124710,221.604782 196.189774,223.917358 
	C196.714310,242.560287 197.186722,261.204742 197.636520,279.849640 
	C197.663910,280.985291 197.281647,282.125641 197.236649,283.269592 
	C197.184570,284.593353 197.294983,285.923492 197.334854,287.250854 
	C199.025208,287.114044 201.376587,287.638763 202.290771,286.725250 
	C206.124695,282.894165 209.528244,278.632416 213.395493,273.844482 
M141.008072,279.405029 
	C141.003128,280.404663 140.792175,281.458221 141.036850,282.392487 
	C141.521530,284.243195 142.257812,286.028076 142.890091,287.840149 
	C143.530670,286.000122 144.702438,284.166290 144.723969,282.319031 
	C144.846237,271.825256 144.666809,261.328247 144.662598,250.832321 
	C144.661942,249.204727 145.035110,247.576950 145.235397,245.949265 
	C145.761810,245.929443 146.288239,245.909607 146.814667,245.889786 
	C147.851440,250.503815 148.821747,255.134018 149.939560,259.728333 
	C151.943878,267.966187 153.949326,276.206329 156.181015,284.383667 
	C156.543839,285.713196 158.072372,286.724548 159.062119,287.882965 
	C159.380875,286.309875 159.779404,284.746765 159.978058,283.158661 
	C160.054596,282.546906 159.672638,281.879395 159.506500,281.235474 
	C156.639435,270.123657 153.636536,259.043671 151.018829,247.873413 
	C150.472809,245.543427 150.769501,242.642487 151.678375,240.412445 
	C154.882751,232.550110 156.429855,224.776001 152.291214,216.819595 
	C150.225616,212.848541 147.209549,210.418167 141.013000,211.575897 
	C141.013000,233.849442 141.013000,256.139587 141.008072,279.405029 
M291.687592,170.361115 
	C291.677673,165.539993 292.195251,160.644928 291.532410,155.915329 
	C290.574646,149.081345 289.181061,142.240005 287.180573,135.642212 
	C285.572754,130.339584 279.895233,130.375717 275.815247,130.449875 
	C273.912781,130.484451 272.053345,135.002884 270.268677,137.554871 
	C269.925598,138.045441 269.952057,138.840775 269.926544,139.500107 
	C269.547546,149.286484 268.688904,159.088943 268.987793,168.855637 
	C269.214203,176.254333 270.579620,183.679657 272.105560,190.953125 
	C272.965942,195.054230 275.323914,198.962875 280.402954,198.945328 
	C285.442780,198.927902 287.860901,195.035095 288.782257,190.970291 
	C290.241638,184.531769 290.761444,177.880295 291.687592,170.361115 
M214.683273,148.434814 
	C214.683273,140.697159 214.683273,132.959518 214.683273,124.962730 
	C217.231323,124.962730 218.910965,125.107643 220.542007,124.889397 
	C221.169495,124.805435 222.036850,123.961800 222.155243,123.342110 
	C222.273956,122.720703 221.635056,121.359100 221.259705,121.333694 
	C218.458298,121.144066 215.514679,120.736534 212.892868,121.436150 
	C211.940231,121.690353 211.277496,124.773247 211.271973,126.567955 
	C211.208252,147.231339 211.322357,167.895172 211.332901,188.558914 
	C211.337860,198.311050 211.284653,198.357376 221.215668,197.997009 
	C222.800049,197.939514 224.361649,197.254242 225.933762,196.859192 
	C225.822586,196.261230 225.711411,195.663269 225.600220,195.065308 
	C222.193924,195.065308 218.787628,195.065308 214.937469,195.065308 
	C214.937469,182.754227 214.937469,171.074631 214.937469,159.573578 
	C217.560806,159.070496 219.763824,158.647995 221.966858,158.225510 
	C221.945999,157.677582 221.925156,157.129639 221.904297,156.581711 
	C219.635727,156.223022 217.367172,155.864334 214.682831,155.439896 
	C214.682831,153.347260 214.682831,151.380646 214.683273,148.434814 
M235.604385,147.145309 
	C235.661804,149.805389 235.588440,152.475876 235.799362,155.123718 
	C236.696030,166.380447 237.165665,177.704849 238.789337,188.859268 
	C240.080841,197.731598 249.370880,201.572281 257.206573,197.301819 
	C259.616730,195.988281 261.486969,194.340103 260.228577,190.996414 
	C259.511475,191.197021 258.982056,191.209290 258.626984,191.464294 
	C249.121307,198.291565 242.101471,195.332199 240.995682,183.586365 
	C239.750153,170.356461 238.846329,157.081543 238.303818,143.805359 
	C238.117615,139.248779 239.000183,134.498489 240.236465,130.071869 
	C241.776245,124.558479 246.833313,122.280807 252.433472,123.700623 
	C253.583389,123.992165 254.794556,124.042107 255.977493,124.203400 
	C256.199249,123.644211 256.421021,123.085014 256.642792,122.525818 
	C254.800919,121.680809 253.022186,120.318016 251.105774,120.084358 
	C244.381668,119.264542 238.655807,122.793999 237.159393,129.443390 
	C235.933792,134.889389 236.031418,140.633194 235.604385,147.145309 
M173.514023,272.819427 
	C173.514023,265.043793 173.514023,257.268188 173.514023,249.454178 
	C175.902786,249.089462 178.172882,248.742874 180.442963,248.396271 
	C180.468781,247.849472 180.494614,247.302673 180.520432,246.755875 
	C178.163773,246.320297 175.807098,245.884720 173.505646,245.459335 
	C173.505646,235.263290 173.505646,225.352127 173.505646,215.259781 
	C175.670273,215.132706 177.577332,215.323898 179.236176,214.770752 
	C179.879211,214.556320 179.960770,212.658066 180.298111,211.526886 
	C177.507431,211.380936 174.650818,210.849747 171.963882,211.309738 
	C171.089600,211.459412 170.113129,214.195557 170.106812,215.752457 
	C170.017578,237.742264 170.033844,259.733154 170.208252,281.722321 
	C170.224442,283.764374 171.282654,287.433228 172.209961,287.550262 
	C176.243912,288.059326 180.674622,289.227264 184.382828,285.929382 
	C182.631775,285.139191 180.918106,285.017273 179.202469,284.974792 
	C177.440567,284.931152 175.676743,284.965118 173.533020,284.965118 
	C173.533020,280.735931 173.533020,277.247528 173.514023,272.819427 
M233.178436,266.499725 
	C233.159897,270.829834 233.136093,275.159973 233.123901,279.490082 
	C233.099670,288.102356 233.103394,288.157837 241.918121,287.987579 
	C243.807709,287.951080 245.686447,287.352875 247.570175,287.013397 
	C247.458466,286.351807 247.346741,285.690216 247.235031,285.028625 
	C243.853455,285.028625 240.471878,285.028625 236.589874,285.028625 
	C236.589874,272.676880 236.589874,260.976776 236.589874,249.484283 
	C239.078217,249.025955 241.273376,248.621628 243.468536,248.217285 
	C243.447327,247.666046 243.426132,247.114807 243.404922,246.563553 
	C241.135193,246.225113 238.865463,245.886673 236.441391,245.525208 
	C236.441391,235.426712 236.441391,225.518677 236.441391,215.290802 
	C238.510925,215.173004 240.317108,215.193817 242.073196,214.907394 
	C242.744186,214.797943 243.633698,214.081802 243.812469,213.465012 
	C243.981049,212.883347 243.392395,211.476089 243.057816,211.450134 
	C240.270203,211.233734 237.349579,210.793427 234.725677,211.448471 
	C233.797546,211.680161 233.118027,214.755569 233.109787,216.536316 
	C233.034271,232.857025 233.131531,249.178543 233.178436,266.499725 
M349.152405,250.500000 
	C349.142548,260.159576 349.137360,269.819153 349.121490,279.478729 
	C349.107330,288.101257 349.103180,288.156372 357.906799,287.988037 
	C359.800873,287.951813 361.684326,287.359894 363.572693,287.023956 
	C363.461517,286.361786 363.350342,285.699646 363.239197,285.037476 
	C359.859314,285.037476 356.479431,285.037476 352.594421,285.037476 
	C352.594421,272.682953 352.594421,260.981049 352.594421,249.481476 
	C355.070557,249.028534 357.270538,248.626099 359.470490,248.223679 
	C359.450470,247.672821 359.430420,247.121979 359.410400,246.571121 
	C357.141754,246.229355 354.873138,245.887589 352.437897,245.520721 
	C352.437897,235.436249 352.437897,225.528336 352.437897,215.295273 
	C354.496796,215.176559 356.321045,215.249252 358.054626,214.887390 
	C358.789795,214.733932 359.490387,213.749237 359.889984,212.978195 
	C360.052307,212.665024 359.401367,211.457184 359.069611,211.435547 
	C356.277863,211.253433 353.360352,210.792526 350.735687,211.443573 
	C349.806702,211.674011 349.129578,214.743927 349.111725,216.525253 
	C349.001740,227.515610 349.112946,238.508163 349.152405,250.500000 
M266.913300,248.617966 
	C268.211426,247.872650 269.509521,247.127335 270.807648,246.382004 
	C268.352814,245.762756 265.898010,245.143494 262.758881,244.351624 
	C262.274811,234.859116 261.755707,224.679855 261.232269,214.416122 
	C264.305573,214.095261 266.627930,213.852798 268.950287,213.610336 
	C268.954468,212.915237 268.958649,212.220154 268.962830,211.525055 
	C265.452911,211.317734 261.942993,211.110413 258.394714,210.900818 
	C258.394714,215.282608 258.277344,218.755325 258.414215,222.217987 
	C259.175934,241.488007 259.936920,260.758636 260.874634,280.020447 
	C261.002777,282.652802 262.117249,285.237213 262.775055,287.843811 
	C263.375061,285.153076 264.554688,282.443817 264.469269,279.775024 
	C264.182220,270.808441 263.463043,261.855072 262.866669,252.899475 
	C262.706818,250.499008 262.877472,248.473938 266.913300,248.617966 
M284.844421,214.005585 
	C285.720398,215.252151 287.281128,216.459763 287.354645,217.751999 
	C287.684906,223.554123 287.635590,229.380249 287.644226,235.197830 
	C287.668060,251.284698 287.652466,267.371643 287.652466,283.725250 
	C286.945129,283.909607 285.338959,284.328247 283.360321,284.843994 
	C286.881500,287.802429 294.893829,287.791718 298.315399,284.778198 
	C296.123352,284.283264 294.339447,283.880463 292.600220,283.487762 
	C291.657593,260.346649 290.720520,237.341949 289.794098,214.599030 
	C292.344086,214.021729 294.069611,213.631073 295.795105,213.240417 
	C295.744659,212.576248 295.694214,211.912079 295.643768,211.247910 
	C291.839478,211.247910 288.034363,211.225372 284.234711,211.358093 
	C284.122070,211.362000 284.066437,212.997772 284.844421,214.005585 
z"/>
<path fill="#E0E0D4" opacity="1.000000" stroke="none" 
	d="
M387.009186,192.005188 
	C375.541809,187.026138 367.221466,178.083862 358.946594,169.234665 
	C352.665314,162.517441 351.411224,153.326782 349.379791,144.896713 
	C346.519012,133.025330 345.077026,120.812042 343.042419,108.326691 
	C345.957642,108.356804 348.858765,108.805183 351.765259,109.741142 
	C352.194916,110.476166 352.619263,110.723610 353.043579,110.971062 
	C353.043579,110.971062 352.996796,110.996002 352.980530,111.346397 
	C360.372467,125.899567 369.523499,138.853622 381.484253,149.557892 
	C385.893707,153.504135 391.227936,156.417068 396.140350,159.801300 
	C396.528473,159.446350 396.916565,159.091400 397.304688,158.736435 
	C395.503815,153.811371 393.688263,148.891617 391.904846,143.960236 
	C386.220764,128.242889 377.119720,115.851601 360.065247,111.182358 
	C366.277100,110.418335 371.950592,111.832497 377.458557,114.818817 
	C385.575012,119.219406 393.817535,123.216660 400.057587,130.460510 
	C405.362610,136.618866 407.604584,143.785568 409.003021,151.491241 
	C409.837341,156.088455 411.006958,160.624832 412.066284,165.569763 
	C407.404724,164.522644 402.702698,163.094299 397.202698,161.423538 
	C396.143127,167.940964 395.071075,174.535126 394.000366,181.808319 
	C394.001709,182.487381 394.000793,182.967697 393.739288,183.177536 
	C391.640808,186.258240 389.803864,189.129120 387.727478,192.000748 
	C387.488037,192.001495 387.009186,192.005188 387.009186,192.005188 
z"/>
<path fill="#E0E0D4" opacity="1.000000" stroke="none" 
	d="
M93.019623,229.973770 
	C97.481033,232.726166 102.478050,234.888962 106.292175,238.353882 
	C114.197021,245.534973 123.391396,251.994766 126.687721,262.859436 
	C128.923843,270.229675 130.054504,277.936188 131.662186,285.495972 
	C133.412064,293.724274 135.193253,301.946625 136.826660,310.198151 
	C137.080994,311.483032 136.620972,312.909302 136.276947,314.476257 
	C132.783417,313.698761 129.504227,312.715271 126.382050,311.364838 
	C126.755226,310.228546 127.412613,309.154083 127.122612,308.734711 
	C120.904175,299.741516 114.500633,290.876160 108.298424,281.872009 
	C102.365250,273.258453 93.096474,268.750031 85.106850,262.666138 
	C84.719307,262.371033 83.972649,262.547546 82.361794,262.427673 
	C84.998718,269.256470 87.554901,275.317078 89.692375,281.521973 
	C94.968246,296.837372 105.495590,306.424957 120.941574,310.832886 
	C108.232491,312.330078 98.561958,305.095703 88.760162,299.012756 
	C76.643234,291.493042 71.068680,279.970642 70.935631,265.663666 
	C70.903778,262.238037 69.697441,258.823395 68.977417,255.127243 
	C73.123367,256.933502 77.709625,258.931610 82.564026,261.046509 
	C83.390236,256.562805 84.197426,252.182343 85.315475,247.072266 
	C85.199463,239.580460 88.131500,234.335373 93.019623,229.973770 
z"/>
<path fill="#F1D9CD" opacity="1.000000" stroke="none" 
	d="
M93.060516,229.619690 
	C88.131500,234.335373 85.199463,239.580460 85.385429,246.652084 
	C85.025536,245.536133 84.906548,244.110748 84.720512,241.882324 
	C83.698883,243.597809 83.064156,244.663605 81.523590,247.250443 
	C78.129158,235.329071 72.995888,224.641891 72.569710,213.770203 
	C72.130432,202.564209 77.271812,191.541397 83.696159,181.803604 
	C85.985931,178.332840 88.309555,174.884415 90.617439,171.426224 
	C90.800186,171.775055 91.087067,172.322678 91.690384,173.016663 
	C93.141556,176.053024 94.053558,179.055588 95.447975,181.814331 
	C103.202126,197.155167 103.121300,212.191391 94.047638,226.988541 
	C93.623192,227.680710 93.411957,228.503616 93.060516,229.619690 
z"/>
<path fill="#C5CD90" opacity="1.000000" stroke="none" 
	d="
M62.026321,314.060669 
	C50.929535,307.870941 40.040470,301.968048 33.270058,291.461090 
	C49.634972,288.673737 65.780022,290.601959 80.689995,299.927582 
	C87.525558,304.202972 94.510719,308.239227 101.871727,312.649780 
	C88.560928,314.957245 75.828880,321.842346 62.026321,314.060669 
z"/>
<path fill="#C5CD90" opacity="1.000000" stroke="none" 
	d="
M384.543884,107.445663 
	C390.977753,106.154060 397.032715,104.359360 403.123077,104.229843 
	C407.873749,104.128822 413.193665,105.117645 417.339905,107.339996 
	C427.635162,112.858231 438.291321,118.207893 445.055817,128.488098 
	C445.354095,128.941345 446.015503,129.155655 446.693817,129.604355 
	C441.128113,130.424637 435.861481,131.777512 430.589996,131.796661 
	C426.315491,131.812210 421.994110,130.387085 417.765900,129.315262 
	C408.896088,127.066811 400.825500,123.416557 393.466125,117.629601 
	C388.897308,114.036964 382.857239,112.315315 376.695587,109.381569 
	C379.713348,108.687462 381.946808,108.173744 384.543884,107.445663 
z"/>
<path fill="#AFB264" opacity="1.000000" stroke="none" 
	d="
M436.747742,199.240128 
	C433.281311,194.438629 430.188385,189.807434 426.825073,185.381744 
	C421.330994,178.152252 419.483856,169.659485 419.166016,161.015656 
	C418.869537,152.954193 417.337128,145.510406 413.200439,138.554840 
	C426.999359,141.343781 440.257904,157.184494 441.696869,171.964752 
	C442.699768,182.266327 443.520935,192.469543 439.240112,202.369888 
	C438.660004,201.627441 437.829926,200.565079 436.747742,199.240128 
z"/>
<path fill="#B0B365" opacity="1.000000" stroke="none" 
	d="
M62.650002,273.229675 
	C63.873016,276.572266 64.848862,279.577850 66.083527,283.380615 
	C54.056370,277.757538 44.080441,270.909058 39.526634,258.733276 
	C37.912849,254.418381 38.072666,249.299561 38.082329,244.549103 
	C38.099316,236.193497 38.623894,227.838913 39.594746,219.451004 
	C51.813641,232.431122 61.727650,246.094101 61.078213,264.726440 
	C60.983986,267.429840 61.935326,270.169678 62.650002,273.229675 
z"/>
<path fill="#C0C0A7" opacity="1.000000" stroke="none" 
	d="
M121.348511,310.914185 
	C105.495590,306.424957 94.968246,296.837372 89.692375,281.521973 
	C87.554901,275.317078 84.998718,269.256470 82.361794,262.427673 
	C83.972649,262.547546 84.719307,262.371033 85.106850,262.666138 
	C93.096474,268.750031 102.365250,273.258453 108.298424,281.872009 
	C114.500633,290.876160 120.904175,299.741516 127.122612,308.734711 
	C127.412613,309.154083 126.755226,310.228546 126.220657,311.011963 
	C124.519989,311.015839 123.137718,311.005676 121.348511,310.914185 
z"/>
<path fill="#C0C0A7" opacity="1.000000" stroke="none" 
	d="
M359.686218,111.103004 
	C377.119720,115.851601 386.220764,128.242889 391.904846,143.960236 
	C393.688263,148.891617 395.503815,153.811371 397.304688,158.736435 
	C396.916565,159.091400 396.528473,159.446350 396.140350,159.801300 
	C391.227936,156.417068 385.893707,153.504135 381.484253,149.557892 
	C369.523499,138.853622 360.372467,125.899567 352.996216,111.324890 
	C355.121185,110.976547 357.214203,111.000099 359.686218,111.103004 
z"/>
<path fill="#C0C0A7" opacity="1.000000" stroke="none" 
	d="
M353.008423,110.716370 
	C352.619263,110.723610 352.194916,110.476166 351.948822,110.096344 
	C352.409119,110.129875 352.691193,110.295776 353.008423,110.716370 
z"/>
<path fill="#E0E0D4" opacity="1.000000" stroke="none" 
	d="
M343.003906,107.676994 
	C342.883881,107.955750 342.683441,107.969193 342.182007,107.967110 
	C342.228546,107.771614 342.576050,107.591652 343.003906,107.676994 
z"/>
<path fill="#F3DBCF" opacity="1.000000" stroke="none" 
	d="
M386.959167,192.356598 
	C387.009186,192.005188 387.488037,192.001495 387.886353,192.295105 
	C390.533722,194.881653 392.782776,197.174606 395.031860,199.467560 
	C395.563019,199.269730 396.094177,199.071899 396.625336,198.874054 
	C395.750488,193.571945 394.875641,188.269821 394.000793,182.967697 
	C394.000793,182.967697 394.001709,182.487381 394.003174,182.247314 
	C395.173218,180.233856 396.341827,178.460464 397.911499,176.078430 
	C402.307495,186.962189 408.244843,197.255493 407.598236,208.529221 
	C406.957153,219.707550 402.840912,230.557861 396.311066,240.093658 
	C394.073517,243.361237 391.809601,246.610764 389.696320,249.668076 
	C377.856018,231.401459 374.313751,212.445480 386.959167,192.356598 
z"/>
<path fill="#818445" opacity="1.000000" stroke="none" 
	d="
M331.519928,274.487915 
	C331.834259,252.613403 332.130280,231.161346 332.481812,209.710205 
	C332.486359,209.433334 333.197998,209.168030 334.370178,208.336502 
	C334.626038,210.358521 334.992035,211.845871 334.975281,213.328888 
	C334.713898,236.472244 334.444000,259.615814 334.019958,282.756439 
	C333.988647,284.464325 332.764954,286.150391 332.095581,287.846619 
	C331.019318,286.279083 329.413788,284.854004 328.947662,283.122223 
	C323.634460,263.382782 318.496124,243.596283 313.303955,223.824219 
	C313.147766,223.229416 312.914215,222.654892 312.775848,222.245712 
	C312.775848,242.439743 312.798950,262.688629 312.735046,282.937256 
	C312.729523,284.687775 312.149078,286.436462 311.835693,288.186005 
	C311.250885,288.114258 310.666107,288.042511 310.081329,287.970764 
	C309.888855,286.936218 309.535248,285.902863 309.527557,284.866943 
	C309.359406,262.216827 309.175049,239.566360 309.189636,216.916092 
	C309.190887,214.964355 310.558533,213.013504 311.291473,211.062256 
	C312.516602,212.776184 314.377380,214.326126 314.868439,216.229462 
	C319.726868,235.060593 324.341034,253.954620 329.070770,272.819183 
	C329.887207,276.075623 329.987793,276.050415 331.519928,274.487915 
z"/>
<path fill="#7F8242" opacity="1.000000" stroke="none" 
	d="
M213.242462,274.186432 
	C209.528244,278.632416 206.124695,282.894165 202.290771,286.725250 
	C201.376587,287.638763 199.025208,287.114044 197.334839,287.250854 
	C197.294983,285.923492 197.184570,284.593353 197.236649,283.269592 
	C197.281647,282.125641 197.663910,280.985291 197.636520,279.849640 
	C197.186722,261.204742 196.714310,242.560287 196.189774,223.917358 
	C196.124710,221.604782 196.162506,219.147690 195.402985,217.025925 
	C193.850571,212.689240 195.538864,211.268219 199.628479,210.982712 
	C208.346680,210.374023 214.050949,214.359833 216.962387,224.176056 
	C221.402298,239.145706 220.897766,254.077316 215.498199,268.780762 
	C214.868729,270.494904 214.099777,272.157806 213.242462,274.186432 
M200.948990,273.422180 
	C200.948990,276.283325 200.948990,279.144470 200.948990,282.689880 
	C206.998856,279.523163 209.877243,275.082886 211.898010,270.134796 
	C215.988602,260.118439 217.464859,249.571014 216.450882,238.861679 
	C215.910217,233.151398 214.744293,227.318161 212.709274,221.979248 
	C210.352615,215.796448 205.206390,213.578400 198.698959,214.844650 
	C199.446167,233.981903 200.197037,253.212601 200.948990,273.422180 
z"/>
<path fill="#808243" opacity="1.000000" stroke="none" 
	d="
M141.010529,278.917389 
	C141.013000,256.139587 141.013000,233.849442 141.013000,211.575897 
	C147.209549,210.418167 150.225616,212.848541 152.291214,216.819595 
	C156.429855,224.776001 154.882751,232.550110 151.678375,240.412445 
	C150.769501,242.642487 150.472809,245.543427 151.018829,247.873413 
	C153.636536,259.043671 156.639435,270.123657 159.506500,281.235474 
	C159.672638,281.879395 160.054596,282.546906 159.978058,283.158661 
	C159.779404,284.746765 159.380875,286.309875 159.062103,287.882965 
	C158.072372,286.724548 156.543839,285.713196 156.181015,284.383667 
	C153.949326,276.206329 151.943878,267.966187 149.939560,259.728333 
	C148.821747,255.134018 147.851440,250.503815 146.814667,245.889786 
	C146.288239,245.909607 145.761810,245.929443 145.235397,245.949265 
	C145.035110,247.576950 144.661942,249.204727 144.662598,250.832321 
	C144.666809,261.328247 144.846237,271.825256 144.723969,282.319031 
	C144.702438,284.166290 143.530670,286.000122 142.890091,287.840149 
	C142.257812,286.028076 141.521530,284.243195 141.036850,282.392487 
	C140.792175,281.458221 141.003128,280.404663 141.010529,278.917389 
M150.919296,233.860504 
	C151.952362,221.647873 150.293991,216.327332 144.572723,214.332901 
	C144.572723,223.586624 144.572723,232.737442 144.572723,241.888260 
	C145.043823,242.122253 145.514923,242.356247 145.986023,242.590256 
	C147.582016,239.961548 149.178009,237.332855 150.919296,233.860504 
z"/>
<path fill="#7F8242" opacity="1.000000" stroke="none" 
	d="
M291.683197,170.840027 
	C290.761444,177.880295 290.241638,184.531769 288.782257,190.970291 
	C287.860901,195.035095 285.442780,198.927902 280.402954,198.945328 
	C275.323914,198.962875 272.965942,195.054230 272.105560,190.953125 
	C270.579620,183.679657 269.214203,176.254333 268.987793,168.855637 
	C268.688904,159.088943 269.547546,149.286484 269.926544,139.500107 
	C269.952057,138.840775 269.925598,138.045441 270.268677,137.554871 
	C272.053345,135.002884 273.912781,130.484451 275.815247,130.449875 
	C279.895233,130.375717 285.572754,130.339584 287.180573,135.642212 
	C289.181061,142.240005 290.574646,149.081345 291.532410,155.915329 
	C292.195251,160.644928 291.677673,165.539993 291.683197,170.840027 
M280.434723,195.884109 
	C285.689941,194.418854 286.706238,189.660507 286.813416,185.607162 
	C287.203583,170.850281 286.947723,156.074112 286.758850,141.307449 
	C286.739288,139.777863 285.956024,137.674759 284.804901,136.866730 
	C282.545349,135.280685 279.595490,133.272186 277.279785,133.638947 
	C275.579437,133.908249 273.724487,137.528961 273.203735,139.930481 
	C272.368896,143.780594 272.278809,147.867706 272.408447,151.837204 
	C272.792664,163.602295 273.080597,175.393738 274.222961,187.095139 
	C274.522980,190.168030 277.786804,192.951599 280.434723,195.884109 
z"/>
<path fill="#828446" opacity="1.000000" stroke="none" 
	d="
M214.683044,148.924438 
	C214.682831,151.380646 214.682831,153.347260 214.682831,155.439896 
	C217.367172,155.864334 219.635727,156.223022 221.904297,156.581711 
	C221.925156,157.129639 221.945999,157.677582 221.966858,158.225510 
	C219.763824,158.647995 217.560806,159.070496 214.937469,159.573578 
	C214.937469,171.074631 214.937469,182.754227 214.937469,195.065308 
	C218.787628,195.065308 222.193924,195.065308 225.600220,195.065308 
	C225.711411,195.663269 225.822586,196.261230 225.933762,196.859192 
	C224.361649,197.254242 222.800049,197.939514 221.215668,197.997009 
	C211.284653,198.357376 211.337860,198.311050 211.332901,188.558914 
	C211.322357,167.895172 211.208252,147.231339 211.271973,126.567955 
	C211.277496,124.773247 211.940231,121.690353 212.892868,121.436150 
	C215.514679,120.736534 218.458298,121.144066 221.259705,121.333694 
	C221.635056,121.359100 222.273956,122.720703 222.155243,123.342110 
	C222.036850,123.961800 221.169495,124.805435 220.542007,124.889397 
	C218.910965,125.107643 217.231323,124.962730 214.683273,124.962730 
	C214.683273,132.959518 214.683273,140.697159 214.683044,148.924438 
z"/>
<path fill="#7F8141" opacity="1.000000" stroke="none" 
	d="
M235.573425,146.695145 
	C236.031418,140.633194 235.933792,134.889389 237.159393,129.443390 
	C238.655807,122.793999 244.381668,119.264542 251.105774,120.084358 
	C253.022186,120.318016 254.800919,121.680809 256.642792,122.525818 
	C256.421021,123.085014 256.199249,123.644211 255.977493,124.203400 
	C254.794556,124.042107 253.583389,123.992165 252.433472,123.700623 
	C246.833313,122.280807 241.776245,124.558479 240.236465,130.071869 
	C239.000183,134.498489 238.117615,139.248779 238.303818,143.805359 
	C238.846329,157.081543 239.750153,170.356461 240.995682,183.586365 
	C242.101471,195.332199 249.121307,198.291565 258.626984,191.464294 
	C258.982056,191.209290 259.511475,191.197021 260.228577,190.996414 
	C261.486969,194.340103 259.616730,195.988281 257.206573,197.301819 
	C249.370880,201.572281 240.080841,197.731598 238.789337,188.859268 
	C237.165665,177.704849 236.696030,166.380447 235.799362,155.123718 
	C235.588440,152.475876 235.661804,149.805389 235.573425,146.695145 
z"/>
<path fill="#7E8141" opacity="1.000000" stroke="none" 
	d="
M173.523529,273.289276 
	C173.533020,277.247528 173.533020,280.735931 173.533020,284.965118 
	C175.676743,284.965118 177.440567,284.931152 179.202469,284.974792 
	C180.918106,285.017273 182.631775,285.139191 184.382828,285.929382 
	C180.674622,289.227264 176.243912,288.059326 172.209961,287.550262 
	C171.282654,287.433228 170.224442,283.764374 170.208252,281.722321 
	C170.033844,259.733154 170.017578,237.742264 170.106812,215.752457 
	C170.113129,214.195557 171.089600,211.459412 171.963882,211.309738 
	C174.650818,210.849747 177.507431,211.380936 180.298111,211.526886 
	C179.960770,212.658066 179.879211,214.556320 179.236176,214.770752 
	C177.577332,215.323898 175.670273,215.132706 173.505646,215.259781 
	C173.505646,225.352127 173.505646,235.263290 173.505646,245.459335 
	C175.807098,245.884720 178.163773,246.320297 180.520432,246.755875 
	C180.494614,247.302673 180.468781,247.849472 180.442963,248.396271 
	C178.172882,248.742874 175.902786,249.089462 173.514023,249.454178 
	C173.514023,257.268188 173.514023,265.043793 173.523529,273.289276 
z"/>
<path fill="#7E8141" opacity="1.000000" stroke="none" 
	d="
M233.178436,265.999756 
	C233.131531,249.178543 233.034271,232.857025 233.109787,216.536316 
	C233.118027,214.755569 233.797546,211.680161 234.725677,211.448471 
	C237.349579,210.793427 240.270203,211.233734 243.057816,211.450134 
	C243.392395,211.476089 243.981049,212.883347 243.812469,213.465012 
	C243.633698,214.081802 242.744186,214.797943 242.073196,214.907394 
	C240.317108,215.193817 238.510925,215.173004 236.441391,215.290802 
	C236.441391,225.518677 236.441391,235.426712 236.441391,245.525208 
	C238.865463,245.886673 241.135193,246.225113 243.404922,246.563553 
	C243.426132,247.114807 243.447327,247.666046 243.468536,248.217285 
	C241.273376,248.621628 239.078217,249.025955 236.589874,249.484283 
	C236.589874,260.976776 236.589874,272.676880 236.589874,285.028625 
	C240.471878,285.028625 243.853455,285.028625 247.235031,285.028625 
	C247.346741,285.690216 247.458466,286.351807 247.570175,287.013397 
	C245.686447,287.352875 243.807709,287.951080 241.918121,287.987579 
	C233.103394,288.157837 233.099670,288.102356 233.123901,279.490082 
	C233.136093,275.159973 233.159897,270.829834 233.178436,265.999756 
z"/>
<path fill="#7E8141" opacity="1.000000" stroke="none" 
	d="
M349.151520,250.000000 
	C349.112946,238.508163 349.001740,227.515610 349.111725,216.525253 
	C349.129578,214.743927 349.806702,211.674011 350.735687,211.443573 
	C353.360352,210.792526 356.277863,211.253433 359.069611,211.435547 
	C359.401367,211.457184 360.052307,212.665024 359.889984,212.978195 
	C359.490387,213.749237 358.789795,214.733932 358.054626,214.887390 
	C356.321045,215.249252 354.496796,215.176559 352.437897,215.295273 
	C352.437897,225.528336 352.437897,235.436249 352.437897,245.520721 
	C354.873138,245.887589 357.141754,246.229355 359.410400,246.571121 
	C359.430420,247.121979 359.450470,247.672821 359.470490,248.223679 
	C357.270538,248.626099 355.070557,249.028534 352.594421,249.481476 
	C352.594421,260.981049 352.594421,272.682953 352.594421,285.037476 
	C356.479431,285.037476 359.859314,285.037476 363.239197,285.037476 
	C363.350342,285.699646 363.461517,286.361786 363.572693,287.023956 
	C361.684326,287.359894 359.800873,287.951813 357.906799,287.988037 
	C349.103180,288.156372 349.107330,288.101257 349.121490,279.478729 
	C349.137360,269.819153 349.142548,260.159576 349.151520,250.000000 
z"/>
<path fill="#7F8141" opacity="1.000000" stroke="none" 
	d="
M266.493164,248.650879 
	C262.877472,248.473938 262.706818,250.499008 262.866669,252.899475 
	C263.463043,261.855072 264.182220,270.808441 264.469269,279.775024 
	C264.554688,282.443817 263.375061,285.153076 262.775055,287.843811 
	C262.117249,285.237213 261.002777,282.652802 260.874634,280.020447 
	C259.936920,260.758636 259.175934,241.488007 258.414215,222.217987 
	C258.277344,218.755325 258.394714,215.282608 258.394714,210.900818 
	C261.942993,211.110413 265.452911,211.317734 268.962830,211.525055 
	C268.958649,212.220154 268.954468,212.915237 268.950287,213.610336 
	C266.627930,213.852798 264.305573,214.095261 261.232269,214.416122 
	C261.755707,224.679855 262.274811,234.859116 262.758881,244.351624 
	C265.898010,245.143494 268.352814,245.762756 270.807648,246.382019 
	C269.509521,247.127335 268.211426,247.872650 266.493164,248.650879 
z"/>
<path fill="#7B7E3D" opacity="1.000000" stroke="none" 
	d="
M284.414307,213.939148 
	C284.066437,212.997772 284.122070,211.362000 284.234711,211.358093 
	C288.034363,211.225372 291.839478,211.247910 295.643768,211.247910 
	C295.694214,211.912079 295.744659,212.576248 295.795105,213.240417 
	C294.069611,213.631073 292.344086,214.021729 289.794098,214.599030 
	C290.720520,237.341949 291.657593,260.346649 292.600220,283.487762 
	C294.339447,283.880463 296.123352,284.283264 298.315399,284.778198 
	C294.893829,287.791718 286.881500,287.802429 283.360321,284.843994 
	C285.338959,284.328247 286.945129,283.909607 287.652466,283.725250 
	C287.652466,267.371643 287.668060,251.284698 287.644226,235.197830 
	C287.635590,229.380249 287.684906,223.554123 287.354645,217.751999 
	C287.281128,216.459763 285.720398,215.252151 284.414307,213.939148 
z"/>
<path fill="#D9C4B2" opacity="1.000000" stroke="none" 
	d="
M393.739288,183.177536 
	C394.875641,188.269821 395.750488,193.571945 396.625336,198.874054 
	C396.094177,199.071899 395.563019,199.269730 395.031860,199.467560 
	C392.782776,197.174606 390.533722,194.881653 388.125763,192.294342 
	C389.803864,189.129120 391.640808,186.258240 393.739288,183.177536 
z"/>
<path fill="#F0ECD3" opacity="1.000000" stroke="none" 
	d="
M200.948441,272.932739 
	C200.197037,253.212601 199.446167,233.981903 198.698959,214.844650 
	C205.206390,213.578400 210.352615,215.796448 212.709274,221.979248 
	C214.744293,227.318161 215.910217,233.151398 216.450882,238.861679 
	C217.464859,249.571014 215.988602,260.118439 211.898010,270.134796 
	C209.877243,275.082886 206.998856,279.523163 200.948990,282.689880 
	C200.948990,279.144470 200.948990,276.283325 200.948441,272.932739 
z"/>
<path fill="#E8E4C8" opacity="1.000000" stroke="none" 
	d="
M150.846649,234.282318 
	C149.178009,237.332855 147.582016,239.961548 145.986023,242.590256 
	C145.514923,242.356247 145.043823,242.122253 144.572723,241.888260 
	C144.572723,232.737442 144.572723,223.586624 144.572723,214.332901 
	C150.293991,216.327332 151.952362,221.647873 150.846649,234.282318 
z"/>
<path fill="#F1ECD4" opacity="1.000000" stroke="none" 
	d="
M280.062134,195.876068 
	C277.786804,192.951599 274.522980,190.168030 274.222961,187.095139 
	C273.080597,175.393738 272.792664,163.602295 272.408447,151.837204 
	C272.278809,147.867706 272.368896,143.780594 273.203735,139.930481 
	C273.724487,137.528961 275.579437,133.908249 277.279785,133.638947 
	C279.595490,133.272186 282.545349,135.280685 284.804901,136.866730 
	C285.956024,137.674759 286.739288,139.777863 286.758850,141.307449 
	C286.947723,156.074112 287.203583,170.850281 286.813416,185.607162 
	C286.706238,189.660507 285.689941,194.418854 280.062134,195.876068 
z"/>
</svg>